<svg xmlns="http://www.w3.org/2000/svg" viewBox="0 0 600 800" role="img" aria-labelledby="title description">
  <title id="title">デフォルト秘書ペリドット</title>
  <desc id="description">ペリドット色の宝石をモチーフにした抽象的な既定秘書画像</desc>
  <defs>
    <linearGradient id="background" x1="0" y1="0" x2="0" y2="1">
      <stop offset="0" stop-color="#f5f7e8"/>
      <stop offset="1" stop-color="#d7e4b8"/>
    </linearGradient>
    <linearGradient id="gem" x1="0" y1="0" x2="1" y2="1">
      <stop offset="0" stop-color="#d8ef77"/>
      <stop offset=".48" stop-color="#98bf3d"/>
      <stop offset="1" stop-color="#587b1f"/>
    </linearGradient>
  </defs>
  <rect width="600" height="800" fill="url(#background)"/>
  <circle cx="300" cy="274" r="124" fill="#fcf7ed" stroke="#486633" stroke-width="12"/>
  <path d="m300 166 92 62-35 118H243l-35-118z" fill="url(#gem)" stroke="#486633" stroke-width="9"/>
  <path d="m300 166-57 180m149-118-184 0m149 118-149-118m92-62 57 180" fill="none" stroke="#eef9bd" stroke-width="7" opacity=".72"/>
  <path d="M114 716c15-177 78-274 186-274s171 97 186 274" fill="#344d3d"/>
  <path d="m218 462 82 92 82-92-19 254H237z" fill="#f7f3e6"/>
  <path d="m300 554-35 54 35 74 35-74z" fill="#9abc43"/>
  <text x="300" y="754" fill="#344d3d" font-family="sans-serif" font-size="30" font-weight="700" text-anchor="middle">PERIDOT</text>
</svg>
